<svg width="24" height="24" viewBox="0 0 24 24" fill="none" xmlns="http://www.w3.org/2000/svg">
<rect width="24" height="24" fill="#F5F5F5"/>
<path d="M-544 -849H4016V-865H-544V-849ZM4088 -777V2535H4104V-777H4088ZM4016 2607H-544V2623H4016V2607ZM-616 2535V-777H-632V2535H-616ZM-544 2607C-583.764 2607 -616 2574.76 -616 2535H-632C-632 2583.6 -592.601 2623 -544 2623V2607ZM4088 2535C4088 2574.76 4055.76 2607 4016 2607V2623C4064.6 2623 4104 2583.6 4104 2535H4088ZM4016 -849C4055.76 -849 4088 -816.764 4088 -777H4104C4104 -825.601 4064.6 -865 4016 -865V-849ZM-544 -865C-592.601 -865 -632 -825.601 -632 -777H-616C-616 -816.764 -583.764 -849 -544 -849V-865Z" fill="#8DD3BB"/>
<rect width="1440" height="1024" transform="translate(-524 -757)" fill="white"/>
<rect x="-67.5" y="-15.5" width="159" height="55" rx="3.5" stroke="#8DD3BB"/>
<path d="M17.5172 12.5555C17.5078 10.957 18.232 9.75234 19.6945 8.86406C18.8766 7.69219 17.6391 7.04766 16.0078 6.92344C14.4633 6.80156 12.7734 7.82344 12.1547 7.82344C11.5008 7.82344 10.0055 6.96563 8.82891 6.96563C6.40078 7.00313 3.82031 8.90156 3.82031 12.7641C3.82031 13.9055 4.02891 15.0844 4.44609 16.2984C5.00391 17.8969 7.01484 21.8133 9.1125 21.75C10.2094 21.7242 10.9852 20.9719 12.4125 20.9719C13.7977 20.9719 14.5148 21.75 15.7383 21.75C17.8547 21.7195 19.6734 18.1594 20.2031 16.5563C17.3648 15.218 17.5172 12.6375 17.5172 12.5555ZM15.0539 5.40703C16.2422 3.99609 16.1344 2.71172 16.0992 2.25C15.0492 2.31094 13.8352 2.96484 13.1437 3.76875C12.382 4.63125 11.9344 5.69766 12.0305 6.9C13.1648 6.98672 14.2008 6.40313 15.0539 5.40703Z" fill="black"/>
</svg>
