<svg width="24" height="24" viewBox="0 0 24 24" fill="none" xmlns="http://www.w3.org/2000/svg">
<rect width="24" height="24" fill="#F5F5F5"/>
<path d="M-368 -849H4192V-865H-368V-849ZM4264 -777V2535H4280V-777H4264ZM4192 2607H-368V2623H4192V2607ZM-440 2535V-777H-456V2535H-440ZM-368 2607C-407.764 2607 -440 2574.76 -440 2535H-456C-456 2583.6 -416.601 2623 -368 2623V2607ZM4264 2535C4264 2574.76 4231.76 2607 4192 2607V2623C4240.6 2623 4280 2583.6 4280 2535H4264ZM4192 -849C4231.76 -849 4264 -816.764 4264 -777H4280C4280 -825.601 4240.6 -865 4192 -865V-849ZM-368 -865C-416.601 -865 -456 -825.601 -456 -777H-440C-440 -816.764 -407.764 -849 -368 -849V-865Z" fill="#8DD3BB"/>
<rect width="1440" height="1024" transform="translate(-348 -757)" fill="white"/>
<rect x="-67.5" y="-15.5" width="159" height="55" rx="3.5" stroke="#8DD3BB"/>
<path d="M21.8055 10.0415H21V10H12V14H17.6515C16.827 16.3285 14.6115 18 12 18C8.6865 18 6 15.3135 6 12C6 8.6865 8.6865 6 12 6C13.5295 6 14.921 6.577 15.9805 7.5195L18.809 4.691C17.023 3.0265 14.634 2 12 2C6.4775 2 2 6.4775 2 12C2 17.5225 6.4775 22 12 22C17.5225 22 22 17.5225 22 12C22 11.3295 21.931 10.675 21.8055 10.0415Z" fill="#FFC107"/>
<path d="M3.15332 7.3455L6.43882 9.755C7.32782 7.554 9.48082 6 12.0003 6C13.5298 6 14.9213 6.577 15.9808 7.5195L18.8093 4.691C17.0233 3.0265 14.6343 2 12.0003 2C8.15932 2 4.82832 4.1685 3.15332 7.3455Z" fill="#FF3D00"/>
<path d="M12.0002 22.0001C14.5832 22.0001 16.9302 21.0116 18.7047 19.4041L15.6097 16.7851C14.5719 17.5743 13.3039 18.0011 12.0002 18.0001C9.39916 18.0001 7.19066 16.3416 6.35866 14.0271L3.09766 16.5396C4.75266 19.7781 8.11366 22.0001 12.0002 22.0001Z" fill="#4CAF50"/>
<path d="M21.8055 10.0415H21V10H12V14H17.6515C17.2571 15.1082 16.5467 16.0766 15.608 16.7855L15.6095 16.7845L18.7045 19.4035C18.4855 19.6025 22 17 22 12C22 11.3295 21.931 10.675 21.8055 10.0415Z" fill="#1976D2"/>
</svg>
